<svg xmlns="http://www.w3.org/2000/svg" xmlns:xlink="http://www.w3.org/1999/xlink" width="169" height="61" viewBox="0 0 169 61">
    <defs>
        <path id="a" d="M.705.466h28.616v33.699H.705z"/>
        <path id="c" d="M.404.297h1.098v2.21H.404z"/>
    </defs>
    <g fill="none" fill-rule="evenodd">
        <g transform="translate(139.317 12.879)">
            <mask id="b" fill="#fff">
                <use xlink:href="#a"/>
            </mask>
            <path fill="#347056" d="M16.423.466c-4.574 0-7.48 1.658-9.225 3.269V1.243H.705v32.922h6.58V15.542c0-.363.103-8.88 8.963-8.88 2.724 0 4.678 1.1 5.805 3.27.896 1.723.951 3.51.952 3.509v20.724h6.317V12.692C29.318 12.57 28.789.466 16.423.466" mask="url(#b)"/>
        </g>
        <path fill="#347056" d="M126.38 30.803c0 7.138-6.228 10.94-10.724 10.94-4.499 0-11.194-2.964-11.194-11.13 0-8.125 6.582-11.074 11.004-11.074 6.742 0 10.915 5.847 10.915 11.264m-10.9-17.459c-10.147 0-17.51 7.28-17.51 17.31 0 10.533 9.053 17.607 17.51 17.607 8.209 0 17.069-6.731 17.069-17.606 0-11.893-8.848-17.31-17.07-17.31M28.144 30.655c0 6.372-4.691 10.995-11.155 10.995-6.895 0-10.566-6.385-10.566-10.995 0-4.66 3.743-11.114 10.771-11.114 8.034 0 10.95 6.647 10.95 11.114zm.015-12.803c-2.003-2.104-5.457-4.508-10.787-4.508C7.63 13.344 0 20.961 0 30.685c0 10.337 8.89 17.28 17.194 17.28 5.164 0 8.839-2.54 10.965-4.592v3.859h6.406V14.159H28.16v3.693zM58.142 19.541c6.177 0 8.611 4.017 9.209 5.249l.52 1.07 5.689-2.854-.554-1.07c-.183-.351-4.565-8.592-14.379-8.592-10.142 0-17.503 7.28-17.503 17.31 0 9.87 7.42 17.311 17.26 17.311 9.274 0 14.155-6.922 14.71-8.88l.257-.909-5.224-2.884-.538 1.123c-.105.22-2.638 5.353-9.124 5.353-6.645 0-11.11-5.746-11.11-11.113 0-5.367 4.335-11.114 10.787-11.114"/>
        <path fill="#2D4635" d="M89.002 41.301V.001H78.938v5.967h3.651v35.333h-3.885v6.009h13.673V41.3zM6.172 58.796l-1.186-1.511 1.15-1.3h.386a.06.06 0 0 0 .059-.06v-.487a.06.06 0 0 0-.06-.06H5a.06.06 0 0 0-.059.06v.487c0 .033.027.06.06.06h.318l-1.074 1.23v-1.23h.44a.06.06 0 0 0 .058-.06v-.487a.06.06 0 0 0-.059-.06H3.114a.06.06 0 0 0-.059.06v.487c0 .033.027.06.06.06h.424v2.811h-.425a.06.06 0 0 0-.059.06v.487c0 .032.027.06.06.06h1.517a.06.06 0 0 0 .059-.06v-.487a.06.06 0 0 0-.06-.06h-.387v-1.4l1.048 1.4h-.309a.06.06 0 0 0-.058.06v.487c0 .032.026.06.058.06h1.575a.06.06 0 0 0 .06-.06v-.487a.06.06 0 0 0-.06-.06h-.386zM10.88 57.048a.484.484 0 0 1-.281.203 1.96 1.96 0 0 1-.554.064h-.303v-1.33h.344c.33 0 .564.053.695.156.128.102.19.263.19.49 0 .177-.03.318-.09.417m.122-1.538c-.235-.087-.554-.132-.947-.132H8.614a.06.06 0 0 0-.06.06v.487c0 .032.027.06.06.06h.423v2.811h-.423a.06.06 0 0 0-.06.06v.487c0 .032.027.059.06.059h1.573a.06.06 0 0 0 .059-.06v-.487a.06.06 0 0 0-.06-.059h-.444v-.892h.45c.534-.003.92-.122 1.148-.354.228-.231.344-.537.344-.907 0-.296-.054-.538-.158-.72a.964.964 0 0 0-.523-.413M15.33 56.066l.464 1.385h-.937l.474-1.385zm1.63 2.73l-1.006-2.827h.381a.06.06 0 0 0 .06-.06v-.47a.059.059 0 0 0-.06-.06h-2.013a.059.059 0 0 0-.06.06v.47c0 .033.027.06.06.06h.382l-1.002 2.828h-.427a.059.059 0 0 0-.059.058v.487c0 .033.027.06.06.06h1.537a.06.06 0 0 0 .06-.06v-.487a.059.059 0 0 0-.06-.058h-.408l.26-.768h1.322l.26.768h-.423a.06.06 0 0 0-.06.058v.487c0 .033.027.06.06.06h1.528a.06.06 0 0 0 .059-.06v-.487a.059.059 0 0 0-.06-.058h-.39zM22.69 57.72c-.017-.008-.035-.01-.05-.002a.06.06 0 0 0-.034.037c-.106.337-.275.601-.502.783-.227.182-.491.274-.786.274-.24 0-.46-.065-.655-.195a1.379 1.379 0 0 1-.465-.525 1.552 1.552 0 0 1-.17-.718c0-.25.055-.488.163-.706.107-.218.26-.392.449-.522.19-.128.409-.193.651-.193.252 0 .486.068.697.2.211.134.38.324.501.563.011.02.03.033.053.033h.504a.06.06 0 0 0 .059-.06v-1.25a.059.059 0 0 0-.06-.06h-.494a.059.059 0 0 0-.058.06v.302a1.93 1.93 0 0 0-1.226-.427c-.385 0-.732.088-1.03.263-.3.175-.537.425-.71.742-.168.317-.254.682-.254 1.086 0 .372.084.719.25 1.031.167.313.403.566.702.75.3.186.646.28 1.031.28.466 0 .878-.124 1.226-.37.347-.244.593-.595.73-1.042a.058.058 0 0 0-.029-.07l-.493-.264zM27.572 58.827c-.262 0-.495-.062-.692-.183a1.214 1.214 0 0 1-.455-.511 1.744 1.744 0 0 1-.16-.76c0-.265.054-.51.16-.727.106-.216.257-.387.448-.509.192-.122.415-.184.665-.184.256 0 .488.063.69.19.202.125.364.3.479.518a1.599 1.599 0 0 1 .01 1.432c-.109.221-.265.4-.465.535-.199.132-.427.2-.68.2m1.068-3.243a2.151 2.151 0 0 0-1.086-.271c-.39 0-.745.088-1.053.263a1.91 1.91 0 0 0-.727.73 2.13 2.13 0 0 0-.264 1.061c0 .397.086.76.257 1.077.173.319.416.571.724.75.307.18.663.272 1.058.272.398 0 .76-.087 1.075-.26.314-.173.565-.422.744-.739.178-.317.268-.684.268-1.09 0-.387-.087-.74-.26-1.052a1.897 1.897 0 0 0-.736-.74M31.91 55.379a.06.06 0 0 0-.058.06v1.426c0 .033.026.06.059.06h.478a.06.06 0 0 0 .059-.06v-.88h.677v2.811h-.436a.06.06 0 0 0-.059.06v.487c0 .033.027.058.06.058h1.584a.059.059 0 0 0 .059-.058v-.487a.06.06 0 0 0-.059-.06h-.445v-2.811h.681v.88c0 .033.027.06.06.06h.478a.06.06 0 0 0 .059-.06v-1.427a.06.06 0 0 0-.06-.06h-3.136zM38.886 56.066l.462 1.385h-.936l.474-1.385zm1.63 2.73l-1.008-2.827h.382a.06.06 0 0 0 .059-.06v-.47a.059.059 0 0 0-.059-.06h-2.014a.059.059 0 0 0-.058.06v.47c0 .033.026.06.058.06h.383l-1.002 2.828h-.427a.059.059 0 0 0-.059.058v.487c0 .033.027.06.059.06h1.538a.06.06 0 0 0 .06-.06v-.487a.059.059 0 0 0-.06-.058h-.409l.26-.768h1.323l.26.768h-.424a.06.06 0 0 0-.06.058v.487c0 .033.028.06.06.06h1.529a.06.06 0 0 0 .059-.06v-.487a.059.059 0 0 0-.06-.058h-.39z"/>
        <g transform="translate(43.122 58.002)">
            <mask id="d" fill="#fff">
                <use xlink:href="#c"/>
            </mask>
            <path fill="#2D4635" d="M.462.297a.06.06 0 0 0-.058.06v.984c0 .032.026.06.058.06H.89v.013c0 .34-.142.52-.434.556a.06.06 0 0 0-.051.06v.418a.059.059 0 0 0 .059.06h.003c.264-.017.473-.067.622-.15a.71.71 0 0 0 .324-.388c.06-.165.09-.39.09-.666V.356a.06.06 0 0 0-.059-.059h-.98z" mask="url(#d)"/>
        </g>
        <path fill="#2D4635" d="M55.338 57.243c.131-.083.238-.186.319-.305a.902.902 0 0 0 .156-.518c0-.217-.058-.412-.172-.581a1.097 1.097 0 0 0-.464-.39 1.496 1.496 0 0 0-.64-.135c-.176 0-.345.025-.502.073-.121.038-.232.09-.331.16v-.11a.059.059 0 0 0-.059-.058h-.488a.059.059 0 0 0-.06.059v1.165c0 .033.027.06.06.06h.488a.06.06 0 0 0 .059-.06v-.266c.19-.284.44-.423.764-.423.189 0 .346.052.468.154.12.1.178.227.178.388 0 .12-.027.22-.08.302a.462.462 0 0 1-.21.18c-.108.045-.307.068-.593.068h-.154a.06.06 0 0 0-.059.06v.483c0 .033.027.06.059.06h.221c.344 0 .587.051.724.153.132.099.196.241.196.436a.574.574 0 0 1-.197.46c-.134.116-.321.175-.558.175-.535 0-.826-.267-.885-.813a.059.059 0 0 0-.075-.05l-.549.165a.06.06 0 0 0-.041.061c.026.415.185.735.472.95.282.213.641.321 1.068.321.268 0 .518-.051.741-.152.224-.101.405-.247.538-.436.134-.19.202-.415.202-.666 0-.258-.063-.473-.189-.642a1.07 1.07 0 0 0-.407-.328M60.876 58.796h-1.774l.88-2.809.894 2.81zm.74 0l-.994-2.863h.386a.06.06 0 0 0 .059-.06v-.435a.06.06 0 0 0-.06-.06h-2.005a.06.06 0 0 0-.06.06v.435c0 .033.027.06.06.06h.391l-.965 2.863h-.426a.06.06 0 0 0-.06.06v1.433c0 .032.027.058.06.058h.483a.059.059 0 0 0 .059-.058v-.887h2.917v.887c0 .032.026.058.058.058h.491a.059.059 0 0 0 .06-.058v-1.433a.06.06 0 0 0-.06-.06h-.394zM66.025 58.827c-.262 0-.495-.062-.692-.183a1.214 1.214 0 0 1-.455-.511 1.744 1.744 0 0 1-.16-.76c0-.265.054-.51.16-.727.106-.216.257-.387.449-.509.191-.122.414-.184.665-.184.255 0 .487.063.689.19.202.125.364.3.48.518a1.599 1.599 0 0 1 .01 1.432c-.11.221-.265.4-.466.535-.198.132-.426.2-.68.2m1.068-3.243a2.151 2.151 0 0 0-1.086-.271c-.39 0-.744.088-1.053.263a1.91 1.91 0 0 0-.727.73 2.13 2.13 0 0 0-.264 1.061c0 .397.087.76.257 1.077.173.319.417.571.724.75.307.18.664.272 1.058.272.399 0 .76-.087 1.075-.26.314-.173.565-.422.744-.739.178-.317.269-.684.269-1.09 0-.387-.088-.74-.261-1.052a1.897 1.897 0 0 0-.736-.74M72.557 57.048a.484.484 0 0 1-.282.203 1.96 1.96 0 0 1-.554.064h-.303v-1.33h.344c.33 0 .564.053.695.156.128.102.19.263.19.49 0 .177-.03.318-.09.417m.122-1.538c-.235-.087-.554-.132-.947-.132H70.29a.06.06 0 0 0-.06.06v.487c0 .032.027.06.06.06h.423v2.811h-.423a.06.06 0 0 0-.06.06v.487c0 .032.027.059.06.059h1.573a.06.06 0 0 0 .059-.06v-.487a.06.06 0 0 0-.06-.059h-.444v-.892h.45c.534-.003.92-.122 1.148-.354.228-.231.344-.537.344-.907 0-.296-.054-.538-.158-.72a.964.964 0 0 0-.523-.413M77.605 58.827c-.262 0-.495-.062-.691-.183a1.214 1.214 0 0 1-.455-.511 1.744 1.744 0 0 1-.16-.76c0-.265.053-.51.16-.727.106-.216.257-.387.448-.509.192-.122.415-.184.665-.184.256 0 .488.063.69.19.202.125.363.3.479.518a1.599 1.599 0 0 1 .01 1.432c-.109.221-.265.4-.466.535-.198.132-.426.2-.68.2m1.069-3.243a2.151 2.151 0 0 0-1.086-.271c-.39 0-.745.088-1.053.263a1.91 1.91 0 0 0-.727.73 2.13 2.13 0 0 0-.264 1.061c0 .397.086.76.257 1.077.172.319.416.571.724.75.307.18.663.272 1.058.272.398 0 .76-.087 1.075-.26.314-.173.564-.422.744-.739.178-.317.268-.684.268-1.09 0-.387-.088-.74-.26-1.052a1.897 1.897 0 0 0-.736-.74M82.993 57.609h.315c.304 0 .53.05.671.148.137.096.203.238.203.435 0 .177-.042.309-.124.393a.609.609 0 0 1-.333.17 3.096 3.096 0 0 1-.56.041h-.172v-1.187zm.33-.603h-.33v-1.022h.325c.22 0 .393.043.511.127.113.083.168.202.168.366 0 .356-.22.53-.675.53zm.973.237a.849.849 0 0 0 .269-.283c.084-.149.128-.322.128-.515 0-.358-.125-.63-.37-.807-.238-.172-.603-.259-1.085-.259h-1.363a.059.059 0 0 0-.06.059v.487c0 .032.027.06.06.06h.42v2.811h-.42a.06.06 0 0 0-.06.06v.486c0 .033.027.06.06.06h1.343c.547 0 .967-.102 1.246-.303.285-.205.43-.507.43-.896 0-.237-.062-.446-.185-.622-.1-.144-.24-.257-.413-.338zM88.543 58.796h-.403v-1.262h.309c.327 0 .567.049.713.147.139.093.207.238.207.441 0 .243-.062.417-.187.518-.127.104-.342.156-.639.156m1.123-1.563c-.269-.192-.71-.29-1.313-.29h-.213v-.959h.44a.06.06 0 0 0 .058-.059v-.487a.06.06 0 0 0-.058-.06h-1.57a.06.06 0 0 0-.058.06v.487c0 .033.026.06.059.06h.424v2.811h-.424a.06.06 0 0 0-.06.06v.487c0 .032.027.06.06.06h1.438c.576 0 .996-.104 1.247-.306.255-.205.385-.535.385-.98 0-.39-.14-.688-.415-.884M92.182 55.379a.06.06 0 0 0-.058.06v.486c0 .033.026.06.058.06h.44v2.811h-.44a.06.06 0 0 0-.058.06v.487c0 .033.026.058.058.058h3.222a.059.059 0 0 0 .059-.058v-1.2a.06.06 0 0 0-.059-.06h-.477a.06.06 0 0 0-.06.06v.653h-1.54v-1.161h1.383a.06.06 0 0 0 .059-.06v-.487a.06.06 0 0 0-.059-.059h-1.383v-1.044h1.54v.593c0 .033.027.06.06.06h.477a.06.06 0 0 0 .059-.06v-1.14a.06.06 0 0 0-.059-.06h-3.222zM104.614 55.379a.06.06 0 0 0-.059.06v.486c0 .033.027.06.06.06h.393v.234l-1.569 1.545v-1.78h.397a.06.06 0 0 0 .058-.059v-.487a.06.06 0 0 0-.058-.06h-1.482a.06.06 0 0 0-.06.06v.487c0 .033.027.06.06.06h.383v2.811h-.383a.06.06 0 0 0-.06.06v.487c0 .033.027.058.06.058h1.482a.059.059 0 0 0 .058-.058v-.487a.06.06 0 0 0-.058-.06h-.397v-.268l1.57-1.56v1.828h-.395a.06.06 0 0 0-.059.06v.487c0 .033.027.058.06.058h1.478a.059.059 0 0 0 .059-.058v-.487a.06.06 0 0 0-.06-.06h-.382v-2.811h.383a.06.06 0 0 0 .059-.06v-.487a.06.06 0 0 0-.06-.06h-1.478zM115.836 58.796h-1.774l.88-2.809.894 2.81zm.74 0l-.994-2.863h.386a.06.06 0 0 0 .059-.06v-.435a.06.06 0 0 0-.06-.06h-2.005a.06.06 0 0 0-.059.06v.435c0 .033.027.06.059.06h.391l-.965 2.863h-.426a.06.06 0 0 0-.06.06v1.433c0 .032.027.058.06.058h.483a.059.059 0 0 0 .06-.058v-.887h2.916v.887c0 .032.026.058.059.058h.49a.059.059 0 0 0 .06-.058v-1.433a.06.06 0 0 0-.06-.06h-.394zM120.985 58.827c-.262 0-.495-.062-.692-.183a1.214 1.214 0 0 1-.455-.511 1.744 1.744 0 0 1-.16-.76c0-.265.054-.51.16-.727.106-.216.257-.387.449-.509.191-.122.414-.184.665-.184.255 0 .487.063.689.19.202.125.364.3.48.518a1.599 1.599 0 0 1 .01 1.432c-.11.221-.265.4-.466.535-.198.132-.426.2-.68.2m1.068-3.243a2.151 2.151 0 0 0-1.085-.271c-.391 0-.745.088-1.054.263a1.91 1.91 0 0 0-.727.73 2.13 2.13 0 0 0-.264 1.061c0 .397.087.76.257 1.077.173.319.417.571.724.75.307.18.664.272 1.059.272.398 0 .76-.087 1.074-.26.315-.173.565-.422.744-.739.178-.317.269-.684.269-1.09 0-.387-.088-.74-.261-1.052a1.897 1.897 0 0 0-.736-.74M128.656 58.796l-1.006-2.827h.381a.06.06 0 0 0 .06-.06v-.471a.06.06 0 0 0-.06-.06h-2.013a.06.06 0 0 0-.06.06v.471c0 .033.027.06.06.06h.382l-1.002 2.827h-.426a.06.06 0 0 0-.06.06v.487c0 .032.028.06.06.06h1.538a.06.06 0 0 0 .058-.06v-.487a.06.06 0 0 0-.058-.06h-.41l.927-2.735.918 2.735h-.425a.06.06 0 0 0-.06.06v.487c0 .032.027.06.06.06h1.528a.06.06 0 0 0 .059-.06v-.487a.06.06 0 0 0-.06-.06h-.39zM131.123 55.379a.06.06 0 0 0-.059.06v.486c0 .033.027.06.06.06h.43v2.811h-.43a.06.06 0 0 0-.06.06v.487c0 .033.027.058.06.058h1.568a.059.059 0 0 0 .06-.058v-.487a.06.06 0 0 0-.06-.06h-.434v-2.811h1.164v.614c0 .032.027.06.06.06h.48a.06.06 0 0 0 .06-.06v-1.16a.06.06 0 0 0-.06-.06h-2.839zM138.08 58.827c-.262 0-.495-.062-.692-.183a1.214 1.214 0 0 1-.455-.511 1.744 1.744 0 0 1-.16-.76c0-.265.054-.51.16-.727.106-.216.257-.387.448-.509.192-.122.415-.184.665-.184.256 0 .488.063.69.19.202.125.364.3.479.518a1.599 1.599 0 0 1 .01 1.432c-.109.221-.265.4-.465.535-.199.132-.427.2-.68.2m1.068-3.243a2.151 2.151 0 0 0-1.086-.271c-.39 0-.744.088-1.053.263a1.91 1.91 0 0 0-.727.73 2.13 2.13 0 0 0-.264 1.061c0 .397.086.76.257 1.077.173.319.416.571.724.75.307.18.664.272 1.058.272.398 0 .76-.087 1.075-.26.314-.173.565-.422.744-.739.178-.317.269-.684.269-1.09 0-.387-.088-.74-.262-1.052a1.897 1.897 0 0 0-.735-.74M145.751 58.796l-1.007-2.827h.382a.06.06 0 0 0 .059-.06v-.471a.06.06 0 0 0-.06-.06h-2.013a.06.06 0 0 0-.058.06v.471c0 .033.026.06.058.06h.383l-1.002 2.827h-.426a.06.06 0 0 0-.06.06v.487c0 .032.027.06.06.06h1.537a.06.06 0 0 0 .06-.06v-.487a.06.06 0 0 0-.06-.06h-.41l.928-2.735.918 2.735h-.426a.06.06 0 0 0-.059.06v.487c0 .032.027.06.06.06h1.528a.06.06 0 0 0 .058-.06v-.487a.06.06 0 0 0-.058-.06h-.392zM148.207 55.379a.06.06 0 0 0-.058.06v.486c0 .033.026.06.058.06h.44v2.811h-.44a.06.06 0 0 0-.058.06v.487c0 .033.026.058.058.058h3.222a.059.059 0 0 0 .059-.058v-1.2a.06.06 0 0 0-.059-.06h-.478a.06.06 0 0 0-.06.06v.653h-1.54v-1.161h1.384a.06.06 0 0 0 .059-.06v-.487a.06.06 0 0 0-.059-.059h-1.383v-1.044h1.54v.593c0 .033.027.06.06.06h.477a.06.06 0 0 0 .059-.06v-1.14a.06.06 0 0 0-.059-.06h-3.222zM153.69 55.379a.06.06 0 0 0-.058.06v1.426c0 .033.026.06.059.06h.478a.06.06 0 0 0 .06-.06v-.88h.676v2.811h-.436a.06.06 0 0 0-.058.06v.487c0 .033.026.058.058.058h1.585a.059.059 0 0 0 .06-.058v-.487a.06.06 0 0 0-.06-.06h-.445v-2.811h.682v.88c0 .033.026.06.058.06h.479a.06.06 0 0 0 .059-.06v-1.427a.06.06 0 0 0-.06-.06h-3.136zM161.27 55.379a.06.06 0 0 0-.06.06v.486c0 .033.027.06.06.06h.393v.234l-1.569 1.545v-1.78h.397a.06.06 0 0 0 .058-.059v-.487a.06.06 0 0 0-.058-.06h-1.482a.06.06 0 0 0-.06.06v.487c0 .033.027.06.06.06h.383v2.811h-.383a.06.06 0 0 0-.06.06v.487c0 .033.027.058.06.058h1.482a.059.059 0 0 0 .058-.058v-.487a.06.06 0 0 0-.058-.06h-.397v-.268l1.57-1.56v1.828h-.395a.06.06 0 0 0-.059.06v.487c0 .033.027.058.06.058h1.478a.059.059 0 0 0 .059-.058v-.487a.06.06 0 0 0-.06-.06h-.382v-2.811h.383a.06.06 0 0 0 .059-.06v-.487a.06.06 0 0 0-.06-.06h-1.478zM167.583 56.637h.477a.06.06 0 0 0 .06-.06v-1.139a.06.06 0 0 0-.06-.06h-3.221a.06.06 0 0 0-.06.06v.487c0 .033.027.06.06.06h.44v2.811h-.44a.06.06 0 0 0-.06.06v.487c0 .032.027.06.06.06h3.221a.06.06 0 0 0 .06-.06v-1.2a.06.06 0 0 0-.06-.06h-.477a.06.06 0 0 0-.06.06v.653h-1.54v-1.161h1.383a.06.06 0 0 0 .06-.06v-.487a.06.06 0 0 0-.06-.059h-1.383v-1.045h1.54v.594c0 .032.027.06.06.06"/>
    </g>
</svg>
